:FULLY-SPECIFIED
:FORCE-ALL-JOINTS-BE-3DOF
:DEGREES
1325
root -1.70074 14.5438 8.08709 -7.65812 31.7328 3.19763
lfemur 5.30927 -0.0363757 -14.5125
ltibia 55.1942 -0 0
lfoot -31.1595 30.5344 0.0591636
ltoes -17.6784 0 0
rfemur -37.0158 -4.29972 -4.67342
rtibia 29.7705 -0 0
rfoot 33.2037 2.12622 -0.302304
rtoes 5.24865 -0 0
lowerback 12.342 0.402307 -12.6487
upperback -1.406 -1.39733 -0.1402
thorax -8.2352 -0.0916642 7.26996
lowerneck -0.714039 -10.9488 -11.5732
upperneck 10.6523 -15.3895 10.0672
head 4.98327 -7.61369 4.05209
lclavicle 1.80397e-14 2.78299e-15 0
lhumerus -77.1244 -17.1436 105.636
lradius 99.2951 -0 0
lwrist 64.4752 0 0
lhand -12.6066 29.2387 0.140114
lfingers 7.12502 -0 0
lthumb 13.4733 58.8154 0.138363
rclavicle 1.80397e-14 2.78299e-15 0
rhumerus 66.826 -4.64938 -31.4959
rradius 77.7398 -0 0
rwrist 33.2709 0 0
rhand -41.3641 -38.5726 0.251292
rfingers 7.12502 -0 0
rthumb -14.2848 -68.1656 0.241873
1326
root -1.71946 14.5208 8.24612 -7.34684 32.7104 3.31862
lfemur 7.0708 -0.659825 -13.7732
ltibia 54.2382 -0 0
lfoot -31.2986 31.373 0.110349
ltoes -17.6617 0 0
rfemur -37.06 -4.75696 -5.1766
rtibia 29.3284 -0 0
rfoot 33.1354 2.89856 -0.549442
rtoes 4.68444 -0 0
lowerback 12.2498 0.425376 -12.7889
upperback -1.43888 -1.38166 -0.194221
thorax -8.22456 -0.077496 7.28563
lowerneck -0.310498 -11.2441 -11.7835
upperneck 10.311 -15.824 10.2771
head 4.88656 -7.83871 4.13187
lclavicle 1.80397e-14 2.78299e-15 0
lhumerus -81.9661 -15.1615 104.426
lradius 99.9256 -0 0
lwrist 65.7346 0 0
lhand -11.9979 29.0011 0.250311
lfingers 7.12502 -0 0
lthumb 14.0608 58.5662 0.247388
rclavicle 1.80397e-14 2.78299e-15 0
rhumerus 69.3295 -8.40212 -29.7367
rradius 77.775 -0 0
rwrist 38.3884 0 0
rhand -42.9684 -37.2301 0.493915
rfingers 7.12502 -0 0
rthumb -15.8327 -66.8045 0.475986
1327
root -1.73817 14.4978 8.40515 -7.07027 33.5042 3.41435
lfemur 8.41391 -1.15759 -13.1639
ltibia 53.5568 -0 0
lfoot -31.4056 32.0941 0.153335
ltoes -17.4856 0 0
rfemur -37.1713 -5.21437 -5.50536
rtibia 29.193 -0 0
rfoot 32.8394 3.52911 -0.74196
rtoes 4.0968 -0 0
lowerback 12.1805 0.447195 -12.9077
upperback -1.47226 -1.36668 -0.236298
thorax -8.22791 -0.0634812 7.30265
lowerneck 0.0242978 -11.4843 -11.964
upperneck 10.0146 -16.1781 10.4594
head 4.80344 -8.02269 4.20173
lclavicle 1.80397e-14 2.78299e-15 0
lhumerus -85.7369 -13.6952 103.372
lradius 100.44 -0 0
lwrist 66.7221 0 0
lhand -11.5705 28.8783 0.330406
lfingers 7.12502 -0 0
lthumb 14.4733 58.437 0.3268
rclavicle 1.80397e-14 2.78299e-15 0
rhumerus 71.1942 -11.4509 -28.4347
rradius 77.8099 -0 0
rwrist 42.4134 0 0
rhand -44.2441 -36.129 0.709674
rfingers 7.12502 -0 0
rthumb -17.0636 -65.6863 0.684556
1328
root -1.75688 14.4748 8.56418 -6.82278 34.1282 3.4861
lfemur 9.3844 -1.53209 -12.6652
ltibia 53.1124 -0 0
lfoot -31.4785 32.7077 0.188083
ltoes -17.1702 0 0
rfemur -37.3524 -5.67703 -5.67068
rtibia 29.3486 -0 0
rfoot 32.3265 4.03251 -0.88227
rtoes 3.48834 -0 0
lowerback 12.1314 0.468589 -13.0055
upperback -1.50651 -1.35122 -0.267716
thorax -8.24428 -0.0491082 7.31959
lowerneck 0.295904 -11.6748 -12.1161
upperneck 9.75859 -16.4593 10.6154
head 4.73244 -8.16922 4.26228
lclavicle 1.80397e-14 2.78299e-15 0
lhumerus -88.5297 -12.6608 102.528
lradius 100.847 -0 0
lwrist 67.4583 0 0
lhand -11.3069 28.8659 0.381489
lfingers 7.12502 -0 0
lthumb 14.7278 58.4231 0.377625
rclavicle 1.80397e-14 2.78299e-15 0
rhumerus 72.5135 -13.8249 -27.4855
rradius 77.8458 -0 0
rwrist 45.4363 0 0
rhand -45.2216 -35.2448 0.886948
rfingers 7.12502 -0 0
rthumb -18.0065 -64.7864 0.856191
1329
root -1.77559 14.4518 8.72321 -6.59805 34.5964 3.53603
lfemur 10.0269 -1.78936 -12.261
ltibia 52.867 -0 0
lfoot -31.5154 33.2235 0.214726
ltoes -16.7356 0 0
rfemur -37.6057 -6.1495 -5.68348
rtibia 29.7799 -0 0
rfoot 31.607 4.42287 -0.97424
rtoes 2.86172 -0 0
lowerback 12.1 0.490352 -13.0826
upperback -1.54199 -1.33408 -0.28976
thorax -8.27272 -0.033866 7.33498
lowerneck 0.510042 -11.8208 -12.2412
upperneck 9.53867 -16.6745 10.7464
head 4.67204 -8.28189 4.31416
lclavicle 1.80397e-14 2.78299e-15 0
lhumerus -90.4328 -11.986 101.918
lradius 101.159 -0 0
lwrist 67.9637 0 0
lhand -11.1896 28.9599 0.405687
lfingers 7.12502 -0 0
lthumb 14.8412 58.5197 0.401935
rclavicle 1.80397e-14 2.78299e-15 0
rhumerus 73.3598 -15.5697 -26.8133
rradius 77.8841 -0 0
rwrist 47.5475 0 0
rhand -45.9306 -34.5536 1.01941
rfingers 7.12502 -0 0
rthumb -18.6903 -64.0808 0.984654
1330
root -1.79431 14.4288 8.88224 -6.38918 34.9229 3.56692
lfemur 10.3853 -1.93809 -11.9379
ltibia 52.783 -0 0
lfoot -31.514 33.6516 0.23356
ltoes -16.2018 0 0
rfemur -37.9336 -6.63584 -5.55456
rtibia 30.4712 -0 0
rfoot 30.691 4.71385 -1.02282
rtoes 2.21955 -0 0
lowerback 12.0837 0.513247 -13.1394
upperback -1.5791 -1.31409 -0.303718
thorax -8.31228 -0.0172468 7.34739
lowerneck 0.672574 -11.9272 -12.341
upperneck 9.35012 -16.831 10.8542
head 4.6207 -8.36427 4.35807
lclavicle 1.80397e-14 2.78299e-15 0
lhumerus -91.5335 -11.6117 101.544
lradius 101.386 -0 0
lwrist 68.2588 0 0
lhand -11.2014 29.1565 0.405946
lfingers 7.12502 -0 0
lthumb 14.83 58.7226 0.402625
rclavicle 1.80397e-14 2.78299e-15 0
rhumerus 73.7926 -16.7414 -26.3629
rradius 77.9262 -0 0
rwrist 48.8373 0 0
rhand -46.4002 -34.0324 1.10492
rfingers 7.12502 -0 0
rthumb -19.143 -63.5464 1.06777
1331
root -1.81302 14.4058 9.04127 -6.18881 35.1215 3.58212
lfemur 10.5025 -1.9889 -11.6846
ltibia 52.8224 -0 0
lfoot -31.4724 34.0017 0.245025
ltoes -15.5891 0 0
rfemur -38.3385 -7.13972 -5.29456
rtibia 31.4071 -0 0
rfoot 29.5881 4.91884 -1.03372
rtoes 1.56447 -0 0
lowerback 12.0797 0.538016 -13.1764
upperback -1.61819 -1.29007 -0.310881
thorax -8.36199 0.00125371 7.35535
lowerneck 0.789476 -11.9991 -12.4176
upperneck 9.18808 -16.9357 10.9408
head 4.57686 -8.41994 4.39472
lclavicle 1.80397e-14 2.78299e-15 0
lhumerus -91.9202 -11.4909 101.39
lradius 101.537 -0 0
lwrist 68.364 0 0
lhand -11.3251 29.4522 0.385825
lfingers 7.12502 -0 0
lthumb 14.7108 59.0276 0.383209
rclavicle 1.80397e-14 2.78299e-15 0
rhumerus 73.8648 -17.4024 -26.0939
rradius 77.9736 -0 0
rwrist 49.3961 0 0
rhand -46.6589 -33.6588 1.1445
rfingers 7.12502 -0 0
rthumb -19.3923 -63.1607 1.10648
1332
root -1.83173 14.3828 9.2003 -5.98925 35.206 3.58535
lfemur 10.4214 -1.95385 -11.4914
ltibia 52.9475 -0 0
lfoot -31.3882 34.2837 0.249689
ltoes -14.9174 0 0
rfemur -38.8226 -7.66439 -4.91397
rtibia 32.572 -0 0
rfoot 28.3076 5.05105 -1.01309
rtoes 0.899111 -0 0
lowerback 12.0855 0.565385 -13.1938
upperback -1.65965 -1.26084 -0.312541
thorax -8.42092 0.0221348 7.35741
lowerneck 0.866814 -12.0412 -12.4731
upperneck 9.04756 -16.9955 11.0082
head 4.53893 -8.45245 4.42486
lclavicle 1.80397e-14 2.78299e-15 0
lhumerus -91.6823 -11.5856 101.431
lradius 101.623 -0 0
lwrist 68.2998 0 0
lhand -11.5436 29.8434 0.349309
lfingers 7.12502 -0 0
lthumb 14.5002 59.4305 0.34762
rclavicle 1.80397e-14 2.78299e-15 0
rhumerus 73.6251 -17.6197 -25.9767
rradius 78.0277 -0 0
rwrist 49.3143 0 0
rhand -46.735 -33.411 1.14157
rfingers 7.12502 -0 0
rthumb -19.4653 -62.9018 1.10403
1333
root -1.85045 14.3598 9.35933 -5.78257 35.1904 3.58056
lfemur 10.1841 -1.84595 -11.3494
ltibia 53.1205 -0 0
lfoot -31.2593 34.5074 0.248222
ltoes -14.2068 0 0
rfemur -39.3883 -8.2128 -4.42307
rtibia 33.9503 -0 0
rfoot 26.8587 5.12364 -0.967253
rtoes 0.226104 -0 0
lowerback 12.0986 0.596066 -13.1921
upperback -1.70385 -1.22522 -0.309992
thorax -8.48809 0.0458899 7.35213
lowerneck 0.910724 -12.0582 -12.5095
upperneck 8.92348 -17.0174 11.0588
head 4.5053 -8.46535 4.44924
lclavicle 1.80397e-14 2.78299e-15 0
lhumerus -90.9099 -11.8648 101.634
lradius 101.655 -0 0
lwrist 68.0868 0 0
lhand -11.8399 30.3268 0.300633
lfingers 7.12502 -0 0
lthumb 14.2145 59.9275 0.300034
rclavicle 1.80397e-14 2.78299e-15 0
rhumerus 73.1201 -17.4628 -25.9884
rradius 78.0899 -0 0
rwrist 48.6821 0 0
rhand -46.6561 -33.2679 1.10114
rfingers 7.12502 -0 0
rthumb -19.3889 -62.7482 1.06524
1334
root -1.86916 14.3368 9.51836 -5.56075 35.0884 3.57182
lfemur 9.83282 -1.67883 -11.2502
ltibia 53.3036 -0 0
lfoot -31.0835 34.6826 0.241377
ltoes -13.4774 0 0
rfemur -40.038 -8.78762 -3.83189
rtibia 35.5266 -0 0
rfoot 25.2507 5.14985 -0.902448
rtoes -0.451918 0 0
lowerback 12.1161 0.630764 -13.1717
upperback -1.75116 -1.18202 -0.304532
thorax -8.56258 0.0730063 7.33804
lowerneck 0.927389 -12.055 -12.5293
upperneck 8.81067 -17.0083 11.0949
head 4.47437 -8.46221 4.46864
lclavicle 1.80397e-14 2.78299e-15 0
lhumerus -89.6936 -12.3007 101.961
lradius 101.642 -0 0
lwrist 67.7454 0 0
lhand -12.1969 30.8988 0.244114
lfingers 7.12502 -0 0
lthumb 13.8702 60.5143 0.244702
rclavicle 1.80397e-14 2.78299e-15 0
rhumerus 72.3946 -17.0029 -26.1098
rradius 78.1616 -0 0
rwrist 47.59 0 0
rhand -46.4499 -33.2083 1.02931
rfingers 7.12502 -0 0
rthumb -19.1896 -62.6786 0.995987
